<mxfile host="app.diagrams.net" agent="Mozilla/5.0 (Macintosh; Intel Mac OS X 10_15_7) AppleWebKit/537.36 (KHTML, like Gecko) Chrome/131.0.0.0 Safari/537.36" version="24.8.9">
  <diagram name="Страница — 1" id="YerQhipw6EQx4tZ8jtwu">
    <mxGraphModel dx="1195" dy="654" grid="1" gridSize="10" guides="1" tooltips="1" connect="1" arrows="1" fold="1" page="1" pageScale="1" pageWidth="827" pageHeight="1169" math="0" shadow="0">
      <root>
        <mxCell id="0" />
        <mxCell id="1" parent="0" />
        <mxCell id="pu4WsWSwlhz93j2Ga_wd-2" style="edgeStyle=orthogonalEdgeStyle;rounded=0;orthogonalLoop=1;jettySize=auto;html=1;" edge="1" parent="1" source="pu4WsWSwlhz93j2Ga_wd-1">
          <mxGeometry relative="1" as="geometry">
            <mxPoint x="430" y="120" as="targetPoint" />
          </mxGeometry>
        </mxCell>
        <mxCell id="pu4WsWSwlhz93j2Ga_wd-1" value="Start receiving" style="shape=parallelogram;perimeter=parallelogramPerimeter;whiteSpace=wrap;html=1;fixedSize=1;" vertex="1" parent="1">
          <mxGeometry x="340" y="40" width="180" height="60" as="geometry" />
        </mxCell>
        <mxCell id="pu4WsWSwlhz93j2Ga_wd-5" style="edgeStyle=orthogonalEdgeStyle;rounded=0;orthogonalLoop=1;jettySize=auto;html=1;exitX=0;exitY=0.5;exitDx=0;exitDy=0;entryX=1;entryY=0.5;entryDx=0;entryDy=0;" edge="1" parent="1" source="pu4WsWSwlhz93j2Ga_wd-3" target="pu4WsWSwlhz93j2Ga_wd-6">
          <mxGeometry relative="1" as="geometry">
            <mxPoint x="260" y="160" as="targetPoint" />
          </mxGeometry>
        </mxCell>
        <mxCell id="pu4WsWSwlhz93j2Ga_wd-8" value="Yes" style="edgeLabel;html=1;align=center;verticalAlign=middle;resizable=0;points=[];" vertex="1" connectable="0" parent="pu4WsWSwlhz93j2Ga_wd-5">
          <mxGeometry x="-0.1802" relative="1" as="geometry">
            <mxPoint as="offset" />
          </mxGeometry>
        </mxCell>
        <mxCell id="pu4WsWSwlhz93j2Ga_wd-9" style="edgeStyle=orthogonalEdgeStyle;rounded=0;orthogonalLoop=1;jettySize=auto;html=1;exitX=0.5;exitY=1;exitDx=0;exitDy=0;" edge="1" parent="1" source="pu4WsWSwlhz93j2Ga_wd-3">
          <mxGeometry relative="1" as="geometry">
            <mxPoint x="430" y="250" as="targetPoint" />
          </mxGeometry>
        </mxCell>
        <mxCell id="pu4WsWSwlhz93j2Ga_wd-10" value="No" style="edgeLabel;html=1;align=center;verticalAlign=middle;resizable=0;points=[];" vertex="1" connectable="0" parent="pu4WsWSwlhz93j2Ga_wd-9">
          <mxGeometry x="-0.3268" y="-1" relative="1" as="geometry">
            <mxPoint as="offset" />
          </mxGeometry>
        </mxCell>
        <mxCell id="pu4WsWSwlhz93j2Ga_wd-13" style="edgeStyle=orthogonalEdgeStyle;rounded=0;orthogonalLoop=1;jettySize=auto;html=1;exitX=0.5;exitY=1;exitDx=0;exitDy=0;" edge="1" parent="1" source="pu4WsWSwlhz93j2Ga_wd-3">
          <mxGeometry relative="1" as="geometry">
            <mxPoint x="430" y="310" as="targetPoint" />
          </mxGeometry>
        </mxCell>
        <mxCell id="pu4WsWSwlhz93j2Ga_wd-14" value="No" style="edgeLabel;html=1;align=center;verticalAlign=middle;resizable=0;points=[];" vertex="1" connectable="0" parent="pu4WsWSwlhz93j2Ga_wd-13">
          <mxGeometry x="-0.2944" y="-1" relative="1" as="geometry">
            <mxPoint as="offset" />
          </mxGeometry>
        </mxCell>
        <mxCell id="pu4WsWSwlhz93j2Ga_wd-3" value="Is fragment damaged?" style="rhombus;whiteSpace=wrap;html=1;" vertex="1" parent="1">
          <mxGeometry x="340" y="200" width="180" height="80" as="geometry" />
        </mxCell>
        <mxCell id="pu4WsWSwlhz93j2Ga_wd-6" value="Send negative acknowledgement" style="rounded=0;whiteSpace=wrap;html=1;" vertex="1" parent="1">
          <mxGeometry x="160" y="210" width="120" height="60" as="geometry" />
        </mxCell>
        <mxCell id="pu4WsWSwlhz93j2Ga_wd-12" style="edgeStyle=orthogonalEdgeStyle;rounded=0;orthogonalLoop=1;jettySize=auto;html=1;exitX=0.5;exitY=1;exitDx=0;exitDy=0;entryX=0.5;entryY=0;entryDx=0;entryDy=0;" edge="1" parent="1" source="pu4WsWSwlhz93j2Ga_wd-11" target="pu4WsWSwlhz93j2Ga_wd-3">
          <mxGeometry relative="1" as="geometry" />
        </mxCell>
        <mxCell id="pu4WsWSwlhz93j2Ga_wd-11" value="Receive fragment" style="rounded=0;whiteSpace=wrap;html=1;" vertex="1" parent="1">
          <mxGeometry x="370" y="120" width="120" height="60" as="geometry" />
        </mxCell>
        <mxCell id="pu4WsWSwlhz93j2Ga_wd-17" style="edgeStyle=orthogonalEdgeStyle;rounded=0;orthogonalLoop=1;jettySize=auto;html=1;exitX=0.5;exitY=1;exitDx=0;exitDy=0;" edge="1" parent="1" source="pu4WsWSwlhz93j2Ga_wd-16">
          <mxGeometry relative="1" as="geometry">
            <mxPoint x="430" y="420" as="targetPoint" />
          </mxGeometry>
        </mxCell>
        <mxCell id="pu4WsWSwlhz93j2Ga_wd-18" value="No" style="edgeLabel;html=1;align=center;verticalAlign=middle;resizable=0;points=[];" vertex="1" connectable="0" parent="pu4WsWSwlhz93j2Ga_wd-17">
          <mxGeometry x="-0.025" y="1" relative="1" as="geometry">
            <mxPoint as="offset" />
          </mxGeometry>
        </mxCell>
        <mxCell id="pu4WsWSwlhz93j2Ga_wd-21" style="edgeStyle=orthogonalEdgeStyle;rounded=0;orthogonalLoop=1;jettySize=auto;html=1;exitX=0;exitY=0.5;exitDx=0;exitDy=0;" edge="1" parent="1" source="pu4WsWSwlhz93j2Ga_wd-16" target="pu4WsWSwlhz93j2Ga_wd-22">
          <mxGeometry relative="1" as="geometry">
            <mxPoint x="280" y="350.16666666666674" as="targetPoint" />
          </mxGeometry>
        </mxCell>
        <mxCell id="pu4WsWSwlhz93j2Ga_wd-16" value="Was this fragment&amp;nbsp;&lt;div&gt;received before?&lt;/div&gt;" style="rhombus;whiteSpace=wrap;html=1;" vertex="1" parent="1">
          <mxGeometry x="315" y="310" width="230" height="80" as="geometry" />
        </mxCell>
        <mxCell id="pu4WsWSwlhz93j2Ga_wd-22" value="Ignore it" style="rounded=1;whiteSpace=wrap;html=1;" vertex="1" parent="1">
          <mxGeometry x="160" y="325" width="120" height="50" as="geometry" />
        </mxCell>
        <mxCell id="pu4WsWSwlhz93j2Ga_wd-24" style="edgeStyle=orthogonalEdgeStyle;rounded=0;orthogonalLoop=1;jettySize=auto;html=1;exitX=0.5;exitY=1;exitDx=0;exitDy=0;" edge="1" parent="1" source="pu4WsWSwlhz93j2Ga_wd-23" target="pu4WsWSwlhz93j2Ga_wd-25">
          <mxGeometry relative="1" as="geometry">
            <mxPoint x="430" y="480" as="targetPoint" />
          </mxGeometry>
        </mxCell>
        <mxCell id="pu4WsWSwlhz93j2Ga_wd-23" value="Save fragment" style="rounded=0;whiteSpace=wrap;html=1;" vertex="1" parent="1">
          <mxGeometry x="370" y="420" width="120" height="40" as="geometry" />
        </mxCell>
        <mxCell id="pu4WsWSwlhz93j2Ga_wd-26" style="edgeStyle=orthogonalEdgeStyle;rounded=0;orthogonalLoop=1;jettySize=auto;html=1;exitX=0.5;exitY=1;exitDx=0;exitDy=0;" edge="1" parent="1" source="pu4WsWSwlhz93j2Ga_wd-25" target="pu4WsWSwlhz93j2Ga_wd-27">
          <mxGeometry relative="1" as="geometry">
            <mxPoint x="430" y="570" as="targetPoint" />
          </mxGeometry>
        </mxCell>
        <mxCell id="pu4WsWSwlhz93j2Ga_wd-25" value="i = fragment sequence number -1" style="rounded=0;whiteSpace=wrap;html=1;" vertex="1" parent="1">
          <mxGeometry x="370" y="490" width="120" height="50" as="geometry" />
        </mxCell>
        <mxCell id="pu4WsWSwlhz93j2Ga_wd-29" style="edgeStyle=orthogonalEdgeStyle;rounded=0;orthogonalLoop=1;jettySize=auto;html=1;exitX=1;exitY=0.5;exitDx=0;exitDy=0;entryX=1;entryY=0.5;entryDx=0;entryDy=0;" edge="1" parent="1" source="pu4WsWSwlhz93j2Ga_wd-27" target="pu4WsWSwlhz93j2Ga_wd-43">
          <mxGeometry relative="1" as="geometry">
            <mxPoint x="660" y="960" as="targetPoint" />
            <Array as="points">
              <mxPoint x="590" y="595" />
              <mxPoint x="590" y="960" />
            </Array>
          </mxGeometry>
        </mxCell>
        <mxCell id="pu4WsWSwlhz93j2Ga_wd-30" value="No" style="edgeLabel;html=1;align=center;verticalAlign=middle;resizable=0;points=[];" vertex="1" connectable="0" parent="pu4WsWSwlhz93j2Ga_wd-29">
          <mxGeometry x="-0.5556" relative="1" as="geometry">
            <mxPoint x="-70" y="-7" as="offset" />
          </mxGeometry>
        </mxCell>
        <mxCell id="pu4WsWSwlhz93j2Ga_wd-31" style="edgeStyle=orthogonalEdgeStyle;rounded=0;orthogonalLoop=1;jettySize=auto;html=1;exitX=0.5;exitY=1;exitDx=0;exitDy=0;" edge="1" parent="1" source="pu4WsWSwlhz93j2Ga_wd-27">
          <mxGeometry relative="1" as="geometry">
            <mxPoint x="430" y="640" as="targetPoint" />
          </mxGeometry>
        </mxCell>
        <mxCell id="pu4WsWSwlhz93j2Ga_wd-27" value="i &amp;gt;= 0" style="rhombus;whiteSpace=wrap;html=1;" vertex="1" parent="1">
          <mxGeometry x="390" y="570" width="80" height="50" as="geometry" />
        </mxCell>
        <mxCell id="pu4WsWSwlhz93j2Ga_wd-35" style="edgeStyle=orthogonalEdgeStyle;rounded=0;orthogonalLoop=1;jettySize=auto;html=1;exitX=0.5;exitY=1;exitDx=0;exitDy=0;" edge="1" parent="1" source="pu4WsWSwlhz93j2Ga_wd-32">
          <mxGeometry relative="1" as="geometry">
            <mxPoint x="430" y="770" as="targetPoint" />
            <Array as="points">
              <mxPoint x="430" y="760" />
              <mxPoint x="430" y="760" />
            </Array>
          </mxGeometry>
        </mxCell>
        <mxCell id="pu4WsWSwlhz93j2Ga_wd-36" value="No" style="edgeLabel;html=1;align=center;verticalAlign=middle;resizable=0;points=[];" vertex="1" connectable="0" parent="pu4WsWSwlhz93j2Ga_wd-35">
          <mxGeometry x="-0.2944" y="-1" relative="1" as="geometry">
            <mxPoint x="11" as="offset" />
          </mxGeometry>
        </mxCell>
        <mxCell id="pu4WsWSwlhz93j2Ga_wd-44" style="edgeStyle=orthogonalEdgeStyle;rounded=0;orthogonalLoop=1;jettySize=auto;html=1;exitX=1;exitY=0.5;exitDx=0;exitDy=0;" edge="1" parent="1" source="pu4WsWSwlhz93j2Ga_wd-32">
          <mxGeometry relative="1" as="geometry">
            <mxPoint x="590" y="690.1666666666667" as="targetPoint" />
          </mxGeometry>
        </mxCell>
        <mxCell id="pu4WsWSwlhz93j2Ga_wd-45" value="Yes" style="edgeLabel;html=1;align=center;verticalAlign=middle;resizable=0;points=[];" vertex="1" connectable="0" parent="pu4WsWSwlhz93j2Ga_wd-44">
          <mxGeometry x="0.4807" y="-1" relative="1" as="geometry">
            <mxPoint x="-22" y="-1" as="offset" />
          </mxGeometry>
        </mxCell>
        <mxCell id="pu4WsWSwlhz93j2Ga_wd-32" value="Is fragment with sequence number = i delivered" style="rhombus;whiteSpace=wrap;html=1;" vertex="1" parent="1">
          <mxGeometry x="340" y="640" width="180" height="100" as="geometry" />
        </mxCell>
        <mxCell id="pu4WsWSwlhz93j2Ga_wd-39" style="edgeStyle=orthogonalEdgeStyle;rounded=0;orthogonalLoop=1;jettySize=auto;html=1;exitX=0.5;exitY=1;exitDx=0;exitDy=0;entryX=0.5;entryY=0;entryDx=0;entryDy=0;" edge="1" parent="1" source="pu4WsWSwlhz93j2Ga_wd-37" target="pu4WsWSwlhz93j2Ga_wd-38">
          <mxGeometry relative="1" as="geometry" />
        </mxCell>
        <mxCell id="pu4WsWSwlhz93j2Ga_wd-37" value="Send negative acknowledgement for sequence number = i" style="rounded=0;whiteSpace=wrap;html=1;" vertex="1" parent="1">
          <mxGeometry x="370" y="770" width="120" height="60" as="geometry" />
        </mxCell>
        <mxCell id="pu4WsWSwlhz93j2Ga_wd-41" style="edgeStyle=orthogonalEdgeStyle;rounded=0;orthogonalLoop=1;jettySize=auto;html=1;exitX=0;exitY=0.5;exitDx=0;exitDy=0;entryX=0;entryY=0.5;entryDx=0;entryDy=0;" edge="1" parent="1" source="pu4WsWSwlhz93j2Ga_wd-38" target="pu4WsWSwlhz93j2Ga_wd-27">
          <mxGeometry relative="1" as="geometry">
            <Array as="points">
              <mxPoint x="310" y="870" />
              <mxPoint x="310" y="595" />
            </Array>
          </mxGeometry>
        </mxCell>
        <mxCell id="pu4WsWSwlhz93j2Ga_wd-38" value="Decrease i by 1" style="rounded=0;whiteSpace=wrap;html=1;" vertex="1" parent="1">
          <mxGeometry x="370" y="850" width="120" height="40" as="geometry" />
        </mxCell>
        <mxCell id="pu4WsWSwlhz93j2Ga_wd-47" style="edgeStyle=orthogonalEdgeStyle;rounded=0;orthogonalLoop=1;jettySize=auto;html=1;exitX=0.5;exitY=1;exitDx=0;exitDy=0;entryX=0.5;entryY=0;entryDx=0;entryDy=0;" edge="1" parent="1" source="pu4WsWSwlhz93j2Ga_wd-43" target="pu4WsWSwlhz93j2Ga_wd-49">
          <mxGeometry relative="1" as="geometry">
            <mxPoint x="430" y="1050" as="targetPoint" />
          </mxGeometry>
        </mxCell>
        <mxCell id="pu4WsWSwlhz93j2Ga_wd-48" value="Yes" style="edgeLabel;html=1;align=center;verticalAlign=middle;resizable=0;points=[];" vertex="1" connectable="0" parent="pu4WsWSwlhz93j2Ga_wd-47">
          <mxGeometry x="-0.3829" y="-2" relative="1" as="geometry">
            <mxPoint as="offset" />
          </mxGeometry>
        </mxCell>
        <mxCell id="pu4WsWSwlhz93j2Ga_wd-50" style="edgeStyle=orthogonalEdgeStyle;rounded=0;orthogonalLoop=1;jettySize=auto;html=1;exitX=0;exitY=0.5;exitDx=0;exitDy=0;entryX=0;entryY=0.5;entryDx=0;entryDy=0;" edge="1" parent="1" source="pu4WsWSwlhz93j2Ga_wd-43" target="pu4WsWSwlhz93j2Ga_wd-11">
          <mxGeometry relative="1" as="geometry">
            <mxPoint x="130" y="36.666666666666664" as="targetPoint" />
            <Array as="points">
              <mxPoint x="140" y="960" />
              <mxPoint x="140" y="150" />
            </Array>
          </mxGeometry>
        </mxCell>
        <mxCell id="pu4WsWSwlhz93j2Ga_wd-43" value="Are all fragments delivered?" style="rhombus;whiteSpace=wrap;html=1;" vertex="1" parent="1">
          <mxGeometry x="355" y="920" width="150" height="80" as="geometry" />
        </mxCell>
        <mxCell id="pu4WsWSwlhz93j2Ga_wd-49" value="Delivery complete" style="rounded=1;whiteSpace=wrap;html=1;" vertex="1" parent="1">
          <mxGeometry x="370" y="1020" width="120" height="60" as="geometry" />
        </mxCell>
      </root>
    </mxGraphModel>
  </diagram>
</mxfile>
